<svg width="40" height="41" viewBox="0 0 40 41" fill="none" xmlns="http://www.w3.org/2000/svg">
<rect x="1" y="1.5" width="38" height="38" rx="19" fill="#9DAEC6"/>
<rect x="1" y="1.5" width="38" height="38" rx="19" stroke="white" stroke-width="2"/>
<path d="M12.6465 15.6465C13.0371 15.6504 13.4199 15.7227 13.7949 15.8633C14.1738 16 14.5156 16.2266 14.8203 16.543C15.1289 16.8594 15.375 17.2871 15.5586 17.8262C15.7422 18.3613 15.834 19.0293 15.834 19.8301C15.834 20.5918 15.7578 21.2695 15.6055 21.8633C15.4531 22.457 15.2324 22.959 14.9434 23.3691C14.6582 23.7793 14.3125 24.0918 13.9062 24.3066C13.5 24.5176 13.0449 24.623 12.541 24.623C12.0215 24.623 11.5586 24.5195 11.1523 24.3125C10.7461 24.1055 10.418 23.8223 10.168 23.4629C9.91797 23.0996 9.75977 22.6836 9.69336 22.2148H10.9941C11.0801 22.5859 11.2539 22.8887 11.5156 23.123C11.7812 23.3535 12.123 23.4688 12.541 23.4688C13.1777 23.4688 13.6738 23.1895 14.0293 22.6309C14.3887 22.0723 14.5703 21.293 14.5742 20.293H14.5098C14.3574 20.5391 14.1719 20.752 13.9531 20.9316C13.7344 21.1074 13.4883 21.2422 13.2148 21.3359C12.9414 21.4297 12.6523 21.4766 12.3477 21.4766C11.8398 21.4766 11.3789 21.3535 10.9648 21.1074C10.5508 20.8613 10.2227 20.5234 9.98047 20.0938C9.73828 19.6602 9.61523 19.166 9.61133 18.6113C9.61523 18.0566 9.74219 17.5547 9.99219 17.1055C10.2461 16.6562 10.5996 16.3008 11.0527 16.0391C11.5059 15.7734 12.0371 15.6426 12.6465 15.6465ZM12.6523 16.7598C12.3203 16.7598 12.0215 16.8418 11.7559 17.0059C11.4902 17.1699 11.2812 17.3906 11.1289 17.668C10.9766 17.9453 10.9004 18.2539 10.9004 18.5938C10.9004 18.9336 10.9727 19.2402 11.1172 19.5137C11.2656 19.7871 11.4707 20.0059 11.7324 20.1699C11.9941 20.3301 12.291 20.4102 12.623 20.4102C12.959 20.4102 13.2598 20.3262 13.5254 20.1582C13.7949 19.9863 14.0098 19.7617 14.1699 19.4844C14.3301 19.2031 14.4102 18.9004 14.4102 18.5762C14.4102 18.2559 14.334 17.957 14.1816 17.6797C14.0293 17.4023 13.8203 17.1797 13.5547 17.0117C13.293 16.8438 12.9922 16.7598 12.6523 16.7598ZM19.7129 15.6465C20.1035 15.6504 20.4863 15.7227 20.8613 15.8633C21.2402 16 21.582 16.2266 21.8867 16.543C22.1953 16.8594 22.4414 17.2871 22.625 17.8262C22.8086 18.3613 22.9004 19.0293 22.9004 19.8301C22.9004 20.5918 22.8242 21.2695 22.6719 21.8633C22.5195 22.457 22.2988 22.959 22.0098 23.3691C21.7246 23.7793 21.3789 24.0918 20.9727 24.3066C20.5664 24.5176 20.1113 24.623 19.6074 24.623C19.0879 24.623 18.625 24.5195 18.2188 24.3125C17.8125 24.1055 17.4844 23.8223 17.2344 23.4629C16.9844 23.0996 16.8262 22.6836 16.7598 22.2148H18.0605C18.1465 22.5859 18.3203 22.8887 18.582 23.123C18.8477 23.3535 19.1895 23.4688 19.6074 23.4688C20.2441 23.4688 20.7402 23.1895 21.0957 22.6309C21.4551 22.0723 21.6367 21.293 21.6406 20.293H21.5762C21.4238 20.5391 21.2383 20.752 21.0195 20.9316C20.8008 21.1074 20.5547 21.2422 20.2812 21.3359C20.0078 21.4297 19.7188 21.4766 19.4141 21.4766C18.9062 21.4766 18.4453 21.3535 18.0312 21.1074C17.6172 20.8613 17.2891 20.5234 17.0469 20.0938C16.8047 19.6602 16.6816 19.166 16.6777 18.6113C16.6816 18.0566 16.8086 17.5547 17.0586 17.1055C17.3125 16.6562 17.666 16.3008 18.1191 16.0391C18.5723 15.7734 19.1035 15.6426 19.7129 15.6465ZM19.7188 16.7598C19.3867 16.7598 19.0879 16.8418 18.8223 17.0059C18.5566 17.1699 18.3477 17.3906 18.1953 17.668C18.043 17.9453 17.9668 18.2539 17.9668 18.5938C17.9668 18.9336 18.0391 19.2402 18.1836 19.5137C18.332 19.7871 18.5371 20.0059 18.7988 20.1699C19.0605 20.3301 19.3574 20.4102 19.6895 20.4102C20.0254 20.4102 20.3262 20.3262 20.5918 20.1582C20.8613 19.9863 21.0762 19.7617 21.2363 19.4844C21.3965 19.2031 21.4766 18.9004 21.4766 18.5762C21.4766 18.2559 21.4004 17.957 21.248 17.6797C21.0957 17.4023 20.8867 17.1797 20.6211 17.0117C20.3594 16.8438 20.0586 16.7598 19.7188 16.7598ZM26.4922 23.9434V18.1836H27.6348V23.9434H26.4922ZM24.1777 21.6406V20.4863H29.9434V21.6406H24.1777Z" fill="white"/>
</svg>
