<svg width="25" height="24" viewBox="0 0 25 24" fill="none" xmlns="http://www.w3.org/2000/svg">
<path fill-rule="evenodd" clip-rule="evenodd" d="M14.3115 18.7617C11.1979 19.5957 7.91731 18.1957 6.36521 15.3707C4.81312 12.5457 5.39079 9.02595 7.76447 6.84524C10.1381 4.66452 13.6941 4.38662 16.3777 6.1721C19.0614 7.95759 20.1788 11.3448 19.0845 14.3767C18.3079 16.532 16.5248 18.1702 14.3115 18.7617Z" stroke="#1A1A1C" stroke-width="1.5" stroke-linecap="round" stroke-linejoin="round"/>
<path d="M13.5628 18.7162C13.5379 19.1297 13.8529 19.485 14.2664 19.5099C14.6799 19.5348 15.0352 19.2198 15.0601 18.8063L13.5628 18.7162ZM11.3443 4.87437C11.1433 4.51219 10.6867 4.3815 10.3246 4.58248C9.96237 4.78346 9.83169 5.24 10.0327 5.60219L11.3443 4.87437ZM17.7201 6.9035C17.8605 6.5138 17.6584 6.08408 17.2687 5.94368C16.879 5.80328 16.4493 6.00537 16.3089 6.39506L17.7201 6.9035ZM12.2415 11.0343L12.0478 10.3097L12.0469 10.31L12.2415 11.0343ZM6.39942 9.05032C6.08299 8.78304 5.60979 8.82289 5.3425 9.13932C5.07522 9.45576 5.11507 9.92896 5.43151 10.1962L6.39942 9.05032ZM7.28096 17.0958C7.14042 17.4855 7.34235 17.9153 7.73199 18.0558C8.12164 18.1963 8.55143 17.9944 8.69198 17.6048L7.28096 17.0958ZM12.7596 12.9638L12.5655 12.2394L12.7596 12.9638ZM18.6027 14.9494C18.9192 15.2166 19.3924 15.1766 19.6596 14.8601C19.9268 14.5435 19.8868 14.0703 19.5702 13.8032L18.6027 14.9494ZM14.3115 18.7613L15.0601 18.8063C15.22 16.1509 14.6192 13.2711 13.8291 10.7807C13.0367 8.28333 12.035 6.11922 11.3443 4.87437L10.6885 5.23828L10.0327 5.60219C10.6759 6.76135 11.6377 8.83373 12.3993 11.2343C13.1632 13.6419 13.707 16.3216 13.5628 18.7162L14.3115 18.7613ZM17.0145 6.64928L16.3089 6.39506C15.6156 8.31922 14.0237 9.7817 12.0478 10.3097L12.2415 11.0343L12.4351 11.7589C14.8858 11.104 16.8602 9.29004 17.7201 6.9035L17.0145 6.64928ZM12.2415 11.0343L12.0469 10.31C10.0717 10.8406 7.96186 10.37 6.39942 9.05032L5.91547 9.62328L5.43151 10.1962C7.36941 11.8331 9.98626 12.4168 12.4361 11.7586L12.2415 11.0343ZM7.98647 17.3503L8.69198 17.6048C9.38604 15.6805 10.9778 14.2177 12.9537 13.6883L12.7596 12.9638L12.5655 12.2394C10.1154 12.8958 8.14159 14.7097 7.28096 17.0958L7.98647 17.3503ZM12.7596 12.9638L12.9537 13.6883C14.9296 13.1589 17.0395 13.6299 18.6027 14.9494L19.0865 14.3763L19.5702 13.8032C17.6319 12.167 15.0156 11.5829 12.5655 12.2394L12.7596 12.9638Z" fill="#1A1A1C"/>
</svg>
