<svg width="25" height="24" viewBox="0 0 25 24" fill="none" xmlns="http://www.w3.org/2000/svg">
<path d="M11.75 19C11.75 19.4142 12.0858 19.75 12.5 19.75C12.9142 19.75 13.25 19.4142 13.25 19H11.75ZM13.25 11C13.25 10.5858 12.9142 10.25 12.5 10.25C12.0858 10.25 11.75 10.5858 11.75 11H13.25ZM15.5 5.75C15.9142 5.75 16.25 5.41421 16.25 5C16.25 4.58579 15.9142 4.25 15.5 4.25V5.75ZM12.5 8H11.75H12.5ZM11.75 11C11.75 11.4142 12.0858 11.75 12.5 11.75C12.9142 11.75 13.25 11.4142 13.25 11H11.75ZM12.5 10.25C12.0858 10.25 11.75 10.5858 11.75 11C11.75 11.4142 12.0858 11.75 12.5 11.75V10.25ZM14.5 11.75C14.9142 11.75 15.25 11.4142 15.25 11C15.25 10.5858 14.9142 10.25 14.5 10.25V11.75ZM12.5 11.75C12.9142 11.75 13.25 11.4142 13.25 11C13.25 10.5858 12.9142 10.25 12.5 10.25V11.75ZM10.5 10.25C10.0858 10.25 9.75 10.5858 9.75 11C9.75 11.4142 10.0858 11.75 10.5 11.75V10.25ZM12.5 19H13.25V11H12.5H11.75V19H12.5ZM15.5 5V4.25C13.4289 4.25 11.75 5.92893 11.75 8H12.5H13.25C13.25 6.75736 14.2574 5.75 15.5 5.75V5ZM12.5 8H11.75V11H12.5H13.25V8H12.5ZM12.5 11V11.75H14.5V11V10.25H12.5V11ZM12.5 11V10.25H10.5V11V11.75H12.5V11Z" fill="#1A1A1C"/>
</svg>
