<svg width="25" height="24" viewBox="0 0 25 24" fill="none" xmlns="http://www.w3.org/2000/svg">
<path fill-rule="evenodd" clip-rule="evenodd" d="M18.168 19.0028C20.4724 19.0867 22.41 17.29 22.5 14.9858V9.01982C22.41 6.71569 20.4724 4.91893 18.168 5.00282H6.832C4.52763 4.91893 2.58998 6.71569 2.5 9.01982V14.9858C2.58998 17.29 4.52763 19.0867 6.832 19.0028H18.168Z" stroke="#1A1A1C" stroke-width="1.5" stroke-linecap="round" stroke-linejoin="round"/>
<path fill-rule="evenodd" clip-rule="evenodd" d="M12.008 9.17809L15.169 11.3261C15.3738 11.4457 15.4997 11.665 15.4997 11.9021C15.4997 12.1392 15.3738 12.3585 15.169 12.4781L12.008 14.8281C11.408 15.2351 10.5 14.8881 10.5 14.2521V9.75209C10.5 9.11909 11.409 8.77109 12.008 9.17809Z" stroke="#1A1A1C" stroke-width="1.5" stroke-linecap="round" stroke-linejoin="round"/>
</svg>
