<svg width="52" height="52" viewBox="0 0 52 52" fill="none" xmlns="http://www.w3.org/2000/svg">
<path d="M10.8382 26.0019L26.0244 17.1775L20.376 29.1595M10.8382 26.0019C6.88001 23.7523 4.42755 20.6294 4.42755 17.1775M10.8382 26.0019V43.5668M20.376 29.1595C22.245 29.4474 24.1333 29.5912 26.0244 29.5895C37.9521 29.5895 47.6212 24.0329 47.6212 17.1786M20.376 29.1595V38.1068M47.6212 17.1786C47.6212 10.3243 37.9521 4.7666 26.0244 4.7666C14.0967 4.7666 4.42755 10.3231 4.42755 17.1775M47.6212 17.1786V34.9001C47.7657 37.4134 45.5499 43.1508 35.5312 45.9934C33.2133 46.7156 26.9371 47.8741 20.376 46.7301V38.1068M4.42755 17.1775V34.9001C4.31341 36.5901 5.43576 40.6894 10.8382 43.5668M10.8382 43.5668L20.376 38.1068" stroke="black" stroke-linecap="round" stroke-linejoin="round"/>
</svg>
