<svg width="54" height="54" viewBox="0 0 54 54" fill="none" xmlns="http://www.w3.org/2000/svg">
<path d="M47.1962 5.2151L47.2001 5.22164L47.2041 5.22862L47.2124 5.2417C47.5681 5.84099 47.6374 6.59074 47.4486 7.45478C47.3135 8.07238 47.0476 8.7493 46.6596 9.4742C46.6081 9.57059 46.5541 9.66829 46.4983 9.76642C46.4143 9.91414 46.3255 10.0636 46.2319 10.2148C46.1696 10.3164 46.1055 10.4176 46.0388 10.5201C45.806 10.8786 45.5484 11.2457 45.2659 11.6214C45.1046 11.8363 44.9354 12.0536 44.7584 12.2735C44.6701 12.3834 44.5797 12.4939 44.4873 12.605C44.3951 12.716 44.301 12.8277 44.2048 12.9399C44.1086 13.0522 44.0106 13.165 43.911 13.2784L43.7597 13.4489C43.6068 13.6184 43.4502 13.7904 43.2897 13.9649C43.0755 14.1958 42.8539 14.4284 42.6249 14.6627C42.5107 14.7817 42.3944 14.8993 42.2762 15.0156C42.1585 15.1337 42.039 15.2521 41.9178 15.3711C41.7966 15.49 41.6737 15.6092 41.549 15.7287C41.424 15.8485 41.2976 15.9685 41.1697 16.0886C41.0419 16.2086 40.9122 16.3292 40.7809 16.4501C40.7137 16.5108 40.6492 16.5709 40.583 16.6316C40.4499 16.7528 40.3153 16.8744 40.1793 16.9962C39.9753 17.1785 39.7675 17.3616 39.5559 17.5453C39.3449 17.7288 39.1301 17.9129 38.9115 18.0975C38.693 18.2821 38.4713 18.4669 38.2463 18.6519C38.096 18.7754 37.9446 18.8992 37.792 19.023C37.6392 19.1466 37.4847 19.2703 37.3286 19.3942C37.1726 19.5181 37.0152 19.6421 36.8565 19.7663C36.6984 19.8898 36.5386 20.0138 36.377 20.1383C36.2154 20.2627 36.0525 20.3869 35.8883 20.5108C35.6415 20.6972 35.392 20.8834 35.1398 21.0695C34.9715 21.1934 34.8019 21.3175 34.631 21.442C34.3738 21.6278 34.1144 21.8136 33.8529 21.9994C33.6785 22.1233 33.5025 22.247 33.3249 22.3706C33.1474 22.4941 32.9688 22.6174 32.7892 22.7404C31.3505 23.7266 29.8365 24.7027 28.2553 25.6548C15.6099 33.2724 3.57789 36.4965 1.35588 32.8702L1.34673 32.855M47.1962 5.2151C47.1228 5.09528 47.0386 4.98242 46.9447 4.87795C46.8812 4.80733 46.8137 4.74048 46.7424 4.67775C46.7062 4.64591 46.6692 4.61494 46.6308 4.58485C46.5128 4.49219 46.3878 4.40892 46.2568 4.3358C45.9125 4.14745 45.5439 4.00785 45.1612 3.92101C45.0427 3.89193 44.9202 3.86663 44.7937 3.84512C44.6673 3.8236 44.5365 3.80441 44.4014 3.78754C44.3343 3.77926 44.2662 3.77228 44.1974 3.76574C43.9907 3.74625 43.7757 3.73346 43.5522 3.72735C43.4781 3.72517 43.4026 3.72386 43.3264 3.72343C43.1742 3.72343 43.0181 3.72343 42.8586 3.72953C42.699 3.73564 42.5369 3.74218 42.3708 3.75309C42.2047 3.76399 42.0351 3.77795 41.8625 3.79452C41.6898 3.8111 41.5137 3.83072 41.335 3.8534C40.9772 3.89818 40.6068 3.95474 40.2237 4.02307C39.9372 4.07366 39.6439 4.13095 39.344 4.19492C39.1443 4.23737 38.9418 4.28259 38.7363 4.33056C38.3259 4.42652 37.9045 4.53338 37.4721 4.65114C37.1486 4.73837 36.8196 4.83288 36.4851 4.93465C36.2622 5.00181 36.0369 5.0716 35.8094 5.144C35.5818 5.21641 35.3538 5.29157 35.1254 5.3695C34.8929 5.44713 34.6588 5.52739 34.4231 5.61026C33.9511 5.776 33.4716 5.95206 32.9845 6.13845C32.7403 6.23178 32.4945 6.32745 32.2468 6.42544C31.8754 6.57286 31.5002 6.72595 31.1212 6.88472M47.1962 5.2151C47.1962 5.2151 48.0834 6.63506 48.8118 7.88432C49.3057 8.73138 49.148 11.4652 45.5016 15.7287M31.1212 6.88472C31.7429 7.87572 32.2166 8.95216 32.5276 10.08M31.1212 6.88472C28.0531 1.69008 20.0931 -0.875521 14.3181 3.14755C7.2945 8.04048 8.17895 15.7287 10.4213 19.334M32.5276 10.08C34.5918 9.6757 36.0731 9.84319 36.5888 10.685L36.5941 10.6937C36.819 11.0679 36.8395 11.5473 36.6782 12.1073M32.5276 10.08C32.6919 10.5779 32.8561 11.3834 32.9222 12.3522M36.6782 12.1073C36.2593 13.5606 34.5179 15.6239 32.0592 17.7222M36.6782 12.1073C36.1643 11.9497 34.9331 11.7899 32.9222 12.3522M32.0592 17.7222C30.3978 19.1389 28.4624 20.53 26.182 21.9043C23.8087 23.3314 21.4755 24.4794 19.3835 25.2924M32.0592 17.7222C32.8795 15.9119 33.0291 13.9186 32.9222 12.3522M19.3835 25.2924C16.3319 26.4779 13.7929 26.9498 12.3909 26.5429M19.3835 25.2924C17.3746 25.0734 15.6256 24.2739 14.3701 23.4799M12.3909 26.5429C11.9393 26.412 11.6062 26.1891 11.4105 25.8699C11.4092 25.8674 11.4077 25.8651 11.4061 25.8629L11.4018 25.8555C10.9139 25.032 11.4105 23.7035 12.6446 22.1333M12.3909 26.5429C12.5477 26.047 13.1631 24.7403 14.3701 23.4799M12.6446 22.1333C11.7694 21.3152 11.0202 20.3719 10.4213 19.334M12.6446 22.1333C12.9855 22.4826 13.5801 22.9801 14.3701 23.4799M10.4213 19.334C3.58399 24.9347 -0.208721 30.269 1.34673 32.855M1.34673 32.855C1.34673 32.855 1.90413 33.8554 2.61377 34.8996M32.8916 12.3608C32.9018 12.358 32.912 12.3551 32.9222 12.3522M2.61377 34.8996C2.78002 35.1442 2.95462 35.3912 3.13236 35.6283C4.57135 37.5479 13.3816 38.1789 31.1212 27.1958C38.4343 22.6681 42.8738 18.8012 45.5016 15.7287M2.61377 34.8996C2.80068 35.8754 3.05246 36.8187 3.36349 37.7276M2.61377 34.8996C2.59641 35.5491 2.77497 36.6169 3.36349 37.7276M45.5016 15.7287C47.5595 16.2625 51.3667 18.2193 52.155 21.5221M52.155 21.5221C52.261 21.9663 52.3124 22.4348 52.2976 22.9275C52.1415 28.1226 47.7713 31.7244 43.7597 34.6913C39.7481 37.6583 30.8626 41.6664 23.2147 42.5513C15.5667 43.4362 10.9364 42.9156 6.7222 40.8856C5.01138 40.0615 3.96984 38.8718 3.36349 37.7276M52.155 21.5221C52.8788 23.5868 53.8063 29.2467 51.7253 35.368C49.1239 43.0197 42.6833 48.1209 38.9115 49.8386C35.1398 51.5564 29.2498 54.1069 20.6133 52.2851C12.8886 50.6556 5.99894 45.4282 3.36349 37.7276" stroke="black" stroke-linecap="round" stroke-linejoin="round"/>
</svg>
