<svg width="52" height="52" viewBox="0 0 52 52" fill="none" xmlns="http://www.w3.org/2000/svg">
<path d="M42.7493 26.019C42.7493 26.019 36.5942 15.2523 22.6452 11.6889C13.6935 9.40215 8.62383 11.5776 6.49604 14.8434M42.7493 26.019C42.7493 26.019 36.5942 36.7856 22.6452 40.3491C14.1844 42.5104 9.1917 40.6852 6.87259 37.7194M42.7493 26.019L7.32402 26.019M6.87259 37.7194C11.7582 44.767 18.6016 47.6666 25.2559 47.6666C37.1468 47.6666 46.7892 37.9659 46.7892 25.9999C46.7892 14.0339 37.1469 4.33325 25.2559 4.33325C17.1876 4.33325 10.478 8.37693 6.49604 14.8434M6.87259 37.7194C3.80743 34.2158 5.8964 28.4593 7.32402 26.019M6.49604 14.8434C3.96165 18.6408 5.99204 23.8761 7.32402 26.019" stroke="black" stroke-linecap="round" stroke-linejoin="round"/>
</svg>
