<svg width="52" height="52" viewBox="0 0 52 52" fill="none" xmlns="http://www.w3.org/2000/svg">
<path d="M48.9667 26C48.9667 13.3159 38.6841 3.03333 26 3.03333M48.9667 26L26 3.03333M48.9667 26L39.8377 26.8678M26 3.03333L25.1509 11.9654M12.0203 7.77669C13.7726 6.43041 15.7247 5.3312 17.8243 4.53115L25.1509 11.9654M12.0203 7.77669L44.2233 39.9797M12.0203 7.77669L11.2331 16.058M44.2233 39.9797C45.5027 38.3145 46.5589 36.4689 47.3473 34.4877L39.8377 26.8678M44.2233 39.9797L35.942 40.7669M25.1509 11.9654L39.8377 26.8678M11.2331 16.058L35.942 40.7669M11.2331 16.058L7.5268 12.3517C4.70305 16.1673 3.03333 20.8887 3.03333 26C3.03333 38.6841 13.3159 48.9667 26 48.9667C31.1113 48.9667 35.8327 47.2969 39.6483 44.4732L35.942 40.7669" stroke="black" stroke-linecap="round" stroke-linejoin="round"/>
</svg>
