<svg width="45" height="44" viewBox="0 0 45 44" fill="none" xmlns="http://www.w3.org/2000/svg">
<rect x="0.500031" width="44" height="44" rx="22" fill="#1A1A1C"/>
<path d="M27.9996 20L30.1209 22.1213L27.9996 24.2426L25.8783 22.1213L27.9996 20Z" fill="#F5F5F7"/>
<path d="M21.1235 31.1204L19.0022 33.2418L16.8809 31.1204L19.0022 28.9991L21.1235 31.1204Z" fill="#F5F5F7"/>
<path d="M24.9996 17L27.1209 19.1213L24.9996 21.2426L22.8783 19.1213L24.9996 17Z" fill="#F5F5F7"/>
<path d="M24.1235 28.1204L22.0022 30.2418L19.8809 28.1204L22.0022 25.9991L24.1235 28.1204Z" fill="#F5F5F7"/>
<path d="M21.9996 14L24.1209 16.1213L21.9996 18.2426L19.8783 16.1213L21.9996 14Z" fill="#F5F5F7"/>
<path d="M27.1235 25.1204L25.0022 27.2418L22.8809 25.1204L25.0022 22.9991L27.1235 25.1204Z" fill="#F5F5F7"/>
<path d="M18.9996 11L21.1209 13.1213L18.9996 15.2426L16.8783 13.1213L18.9996 11Z" fill="#F5F5F7"/>
<path d="M24.1235 22.1204L22.0022 24.2418L19.8809 22.1204L22.0022 19.9991L24.1235 22.1204Z" fill="#F5F5F7"/>
<path d="M18.7427 22.1204L16.6214 24.2418L14.5 22.1204L16.6214 19.9991L18.7427 22.1204Z" fill="#F5F5F7"/>
</svg>
