<svg width="143" height="22" viewBox="0 0 143 22" fill="none" xmlns="http://www.w3.org/2000/svg">
<path d="M142.11 15.9347C142.11 19.7147 139.56 21.9047 133.92 21.9047C127.5 21.9047 124.2 18.9347 124.2 13.6247H126.96C126.96 17.6747 129.33 19.5947 133.98 19.5947C137.64 19.5947 139.35 18.4247 139.35 16.0847C139.35 14.4347 138.27 13.1747 135.81 12.5447L129.9 11.0147C126.57 10.1447 125.19 8.22473 125.19 5.70473C125.19 2.04473 127.83 0.0947266 132.69 0.0947266C138.45 0.0947266 141.48 2.85473 141.48 7.41473H138.69C138.69 4.05473 136.68 2.37473 132.69 2.37473C129.6 2.37473 127.95 3.42473 127.95 5.58473C127.95 7.08473 128.85 8.22473 131.16 8.82473L137.01 10.2947C140.43 11.1647 142.11 13.1447 142.11 15.9347Z" fill="#1A1A1C" fill-opacity="0.6"/>
<path d="M106.979 17.4343C106.979 15.0643 108.419 13.4143 111.959 13.0843L117.809 12.5143C117.689 9.81426 116.459 8.52426 113.819 8.52426C111.749 8.52426 110.189 9.48426 109.949 11.9743H107.309C107.639 8.58426 109.919 6.36426 113.789 6.36426C118.139 6.36426 120.479 9.03426 120.479 12.9643V19.2943H122.669V21.5743H119.939C118.799 21.5743 118.139 20.9143 118.139 19.7743V19.0543L118.559 17.4643H117.809C117.239 19.7443 115.649 21.8743 112.019 21.8743C107.639 21.8743 106.979 18.9943 106.979 17.4343ZM109.619 17.1043C109.619 18.8143 110.729 19.6843 112.439 19.6843C115.679 19.6843 117.809 17.4043 117.809 14.4043L112.409 14.9743C110.579 15.1543 109.619 15.6643 109.619 17.1043Z" fill="#1A1A1C" fill-opacity="0.6"/>
<path d="M89.1076 17.4343C89.1076 15.0643 90.5476 13.4143 94.0876 13.0843L99.9376 12.5143C99.8176 9.81426 98.5876 8.52426 95.9476 8.52426C93.8776 8.52426 92.3176 9.48426 92.0776 11.9743H89.4376C89.7676 8.58426 92.0476 6.36426 95.9176 6.36426C100.268 6.36426 102.608 9.03426 102.608 12.9643V19.2943H104.798V21.5743H102.068C100.928 21.5743 100.268 20.9143 100.268 19.7743V19.0543L100.688 17.4643H99.9376C99.3676 19.7443 97.7776 21.8743 94.1476 21.8743C89.7676 21.8743 89.1076 18.9943 89.1076 17.4343ZM91.7476 17.1043C91.7476 18.8143 92.8576 19.6843 94.5676 19.6843C97.8076 19.6843 99.9376 17.4043 99.9376 14.4043L94.5376 14.9743C92.7076 15.1543 91.7476 15.6643 91.7476 17.1043Z" fill="#1A1A1C" fill-opacity="0.6"/>
<path d="M86.3584 15.9347C86.3584 19.7147 83.8084 21.9047 78.1684 21.9047C71.7484 21.9047 68.4484 18.9347 68.4484 13.6247H71.2084C71.2084 17.6747 73.5784 19.5947 78.2284 19.5947C81.8884 19.5947 83.5984 18.4247 83.5984 16.0847C83.5984 14.4347 82.5184 13.1747 80.0584 12.5447L74.1484 11.0147C70.8184 10.1447 69.4384 8.22473 69.4384 5.70473C69.4384 2.04473 72.0784 0.0947266 76.9384 0.0947266C82.6984 0.0947266 85.7284 2.85473 85.7284 7.41473H82.9384C82.9384 4.05473 80.9284 2.37473 76.9384 2.37473C73.8484 2.37473 72.1984 3.42473 72.1984 5.58473C72.1984 7.08473 73.0984 8.22473 75.4084 8.82473L81.2584 10.2947C84.6784 11.1647 86.3584 13.1447 86.3584 15.9347Z" fill="#1A1A1C" fill-opacity="0.6"/>
<path d="M66.4707 19.2952V21.5752H60.6207C59.2107 21.5752 58.5207 20.9152 58.5207 19.4752V8.9452H55.2207V6.6652H58.5207V2.8852L61.1907 2.0752V6.6652H65.8707V8.9452H61.1907V19.3252L66.4707 19.2952Z" fill="#1A1A1C"/>
<path d="M38.4406 21.575L43.4806 14.075L38.4406 6.66504H41.4706L45.7306 13.055H46.2706L50.5306 6.66504H53.5606L48.5506 14.075L53.5606 21.575H50.5306L46.2706 15.185H45.7306L41.4706 21.575H38.4406Z" fill="#1A1A1C"/>
<path d="M22.633 13.9243C22.633 9.09426 25.513 6.36426 29.773 6.36426C34.183 6.36426 37.063 9.03426 37.063 13.6543V14.6143H25.213C25.303 17.5243 26.833 19.7443 29.923 19.7443C32.473 19.7443 33.973 18.4243 34.483 16.3543H37.123C36.523 19.1143 34.543 21.8743 29.953 21.8743C25.093 21.8743 22.633 18.3343 22.633 13.9243ZM25.243 12.7243H34.453C34.273 10.0243 32.443 8.46426 29.773 8.46426C27.313 8.46426 25.453 10.0243 25.243 12.7243Z" fill="#1A1A1C"/>
<path d="M0.500031 21.5748V0.424805H5.96003L16.04 20.8248H16.79L16.34 18.9348V0.424805H19.04V21.5748H13.58L3.53003 1.17481H2.75003L3.23003 3.0648V21.5748H0.500031Z" fill="#1A1A1C"/>
</svg>
