<svg width="44" height="46" viewBox="0 0 44 46" fill="none" xmlns="http://www.w3.org/2000/svg">
<path d="M38.7493 23.019C38.7493 23.019 32.5942 12.2523 18.6452 8.68887C9.69349 6.40215 4.62383 8.57758 2.49604 11.8434M38.7493 23.019C38.7493 23.019 32.5942 33.7856 18.6452 37.3491C10.1844 39.5104 5.1917 37.6852 2.87259 34.7194M38.7493 23.019L3.32402 23.019M2.87259 34.7194C7.75816 41.767 14.6016 44.6666 21.2559 44.6666C33.1468 44.6666 42.7892 34.9659 42.7892 22.9999C42.7892 11.0339 33.1469 1.33325 21.2559 1.33325C13.1876 1.33325 6.47798 5.37693 2.49604 11.8434M2.87259 34.7194C-0.192565 31.2158 1.8964 25.4593 3.32402 23.019M2.49604 11.8434C-0.0383452 15.6408 1.99204 20.8761 3.32402 23.019" stroke="black" stroke-linecap="round" stroke-linejoin="round"/>
</svg>
