<svg width="56" height="56" viewBox="0 0 56 56" fill="none" xmlns="http://www.w3.org/2000/svg">
<path fill-rule="evenodd" clip-rule="evenodd" d="M23.0801 20.3688C23.0541 20.3688 23.0039 20.3688 22.978 20.3688C22.547 20.3163 22.1922 19.9213 22.1922 19.4738C22.1662 19.0525 21.9376 9.20625 27.492 6.96858C28.8871 6.41566 30.1819 6.5209 31.2723 7.33719C32.6155 8.31125 33.5796 10.2594 34.1629 13.1027C34.5679 15.1035 34.6441 16.841 34.6441 16.9201C34.67 17.3412 34.3412 17.6573 33.9085 17.5782C33.4775 17.5255 33.1227 17.1307 33.1227 16.7094C33.0465 14.9192 32.4632 9.99619 30.5367 8.57445C29.9275 8.12695 29.1658 8.07424 28.2536 8.44285C23.4851 10.3646 23.7136 19.6054 23.7136 19.7106C23.7136 20.0793 23.4609 20.3688 23.0801 20.3688Z" fill="#595961"/>
<path opacity="0.46" fill-rule="evenodd" clip-rule="evenodd" d="M30.9917 7.3901C29.9775 6.65288 28.7865 6.54764 27.4918 7.04785C25.2348 7.9692 23.6372 10.3914 22.8514 14.0771C22.2681 16.7887 22.3442 19.2372 22.3442 19.3424C22.3442 19.474 22.3944 19.6058 22.4965 19.711C22.5969 19.8163 22.6991 19.8953 22.8254 19.8953C22.8514 19.8953 22.8774 19.8953 22.9016 19.8953C23.1301 19.8953 23.3083 19.711 23.3083 19.474C23.3083 19.3688 23.0799 9.97004 27.9749 7.99556C28.9632 7.60077 29.8251 7.6533 30.5365 8.17986C32.5894 9.68049 33.1986 14.7616 33.2747 16.5782C33.2747 16.8414 33.5033 17.1047 33.7819 17.1309C34.0364 17.1573 34.2388 16.973 34.2388 16.7098C34.2129 16.3939 33.9343 9.54889 30.9917 7.3901Z" fill="#1A1A1C" fill-opacity="0.1"/>
<path opacity="0.46" fill-rule="evenodd" clip-rule="evenodd" d="M22.8514 19.5789C22.8254 19.5789 22.8255 19.5789 22.8012 19.5789C22.6489 19.5525 22.5208 19.3946 22.4965 19.2366C22.4965 19.1312 22.4204 16.7356 23.0037 14.0239C23.7636 10.4172 25.3629 8.02138 27.568 7.1262C28.8108 6.62599 29.9273 6.73141 30.8914 7.41593C33.7318 9.49565 34.0104 16.2354 34.0104 16.5249C34.0104 16.6829 33.8841 16.7881 33.7318 16.7619C33.5794 16.7356 33.453 16.604 33.4271 16.4197C33.4271 16.3406 33.1484 9.73267 30.5867 7.83707C29.8251 7.28433 28.887 7.20527 27.8225 7.62641C22.8514 9.70631 23.0799 19.2366 23.0799 19.3419C23.1041 19.4735 23.0037 19.5789 22.8514 19.5789Z" fill="#1A1A1C" fill-opacity="0.1"/>
<path opacity="0.62" fill-rule="evenodd" clip-rule="evenodd" d="M24.3469 13.7343C24.4993 13.313 24.6515 12.8655 24.7537 12.4443C24.7035 12.6023 24.449 14.0239 22.8254 14.0239C22.8254 14.0239 23.7636 14.2082 24.3469 13.7343Z" fill="#595961"/>
<path opacity="0.62" fill-rule="evenodd" clip-rule="evenodd" d="M24.9062 12.0498C25.1087 11.655 25.3111 11.26 25.4894 10.8389C25.4133 10.9705 24.9061 12.3395 23.3587 12.1288C23.3327 12.1288 24.2709 12.4184 24.9062 12.0498Z" fill="#595961"/>
<path opacity="0.62" fill-rule="evenodd" clip-rule="evenodd" d="M25.6415 10.601C25.9461 10.2851 26.1988 9.94283 26.4775 9.57422C26.3771 9.67946 25.5394 10.7589 24.0439 10.364C24.0439 10.364 24.9059 10.838 25.6415 10.601Z" fill="#595961"/>
<path opacity="0.62" fill-rule="evenodd" clip-rule="evenodd" d="M33.249 10.3383C33.0465 9.86423 32.818 9.41673 32.5895 8.94287C32.6657 9.10082 33.4273 10.6015 32.5653 11.6808C32.5653 11.6808 33.2248 11.1544 33.249 10.3383Z" fill="#595961"/>
<path opacity="0.62" fill-rule="evenodd" clip-rule="evenodd" d="M26.5796 9.39033C26.9344 9.12714 27.2633 8.86377 27.5939 8.57422C27.4676 8.65328 26.4273 9.52193 24.9821 8.89012C24.9821 8.89012 25.818 9.49558 26.5796 9.39033Z" fill="#595961"/>
<path opacity="0.62" fill-rule="evenodd" clip-rule="evenodd" d="M27.9489 8.52114C28.3799 8.38954 28.7867 8.23159 29.1917 8.07364C29.0394 8.12617 27.7463 8.60003 26.4776 7.59961C26.5036 7.59961 27.1631 8.38954 27.9489 8.52114Z" fill="#595961"/>
<path opacity="0.62" fill-rule="evenodd" clip-rule="evenodd" d="M31.8556 7.96871C31.4489 7.62645 31.0438 7.31055 30.637 7.021C30.7893 7.15259 32.1342 8.12666 32.0581 9.60111C32.0321 9.60111 32.2607 8.73229 31.8556 7.96871Z" fill="#595961"/>
<path opacity="0.62" fill-rule="evenodd" clip-rule="evenodd" d="M30.663 8.62692C30.9157 8.91664 31.1961 9.20619 31.499 9.46939C31.3986 9.36415 30.5367 8.49532 30.7392 7.41602C30.7132 7.41602 30.4346 8.02147 30.663 8.62692Z" fill="#595961"/>
<path opacity="0.62" fill-rule="evenodd" clip-rule="evenodd" d="M29.1918 8.04775C29.5466 8.10046 29.9014 8.12682 30.2562 8.15317C30.1299 8.12682 29.0134 8.04776 28.3799 6.99463C28.3799 6.99463 28.6344 7.70549 29.1918 8.04775Z" fill="#595961"/>
<path opacity="0.74" fill-rule="evenodd" clip-rule="evenodd" d="M33.7318 16.3931C33.7318 16.1034 33.4531 9.44272 30.6889 7.4157C30.1558 7.02073 29.5724 6.83643 28.9632 6.83643C28.5062 6.83643 28.025 6.94167 27.5178 7.15233C25.311 8.02115 23.7636 10.3642 23.0037 13.9446C22.4204 16.63 22.4965 19.0258 22.4965 19.131C22.4965 19.2101 22.5727 19.2889 22.6489 19.2889H22.6731C22.7492 19.2889 22.8012 19.2364 22.8012 19.1573C22.8012 19.0521 22.5467 9.44271 27.6442 7.38934C28.7606 6.94167 29.7247 7.02073 30.5365 7.62618C33.1727 9.54813 33.4531 16.2615 33.4531 16.3404C33.4531 16.4195 33.5292 16.4984 33.6054 16.4984C33.6054 16.4984 33.6054 16.4984 33.6296 16.4984C33.6815 16.5247 33.7318 16.472 33.7318 16.3931Z" fill="url(#paint0_linear_1_705)"/>
<path fill-rule="evenodd" clip-rule="evenodd" d="M34.1629 13.1032C33.5796 10.2599 32.6155 8.33794 31.2723 7.33752C30.5367 6.81113 29.7492 6.57411 28.8872 6.62682C29.5726 6.67936 30.2061 6.91637 30.7894 7.33752C32.1343 8.31176 33.0985 10.2599 33.6818 13.1032C34.0868 15.104 34.1629 16.8415 34.1629 16.9206C34.1629 17.2365 34.0106 17.4735 33.7562 17.5524C33.8081 17.5787 33.8583 17.5787 33.8843 17.5787C34.3153 17.6314 34.6441 17.3417 34.6199 16.9206C34.6441 16.8415 34.5679 15.1304 34.1629 13.1032Z" fill="url(#paint1_linear_1_705)"/>
<path fill-rule="evenodd" clip-rule="evenodd" d="M27.7724 8.44281C23.0038 10.3646 23.2322 19.6054 23.2322 19.7106C23.2322 20.0265 23.0799 20.2635 22.8254 20.3424C22.8774 20.3688 22.9017 20.3688 22.9536 20.3688C22.9778 20.3688 23.0297 20.3688 23.0539 20.3688C23.4347 20.3688 23.6874 20.0792 23.6874 19.7106C23.6874 19.6054 23.4607 10.3909 28.2276 8.46917C28.5582 8.33757 28.8627 8.25851 29.1414 8.23215C28.7347 8.15326 28.2795 8.23215 27.7724 8.44281Z" fill="url(#paint2_linear_1_705)"/>
<path fill-rule="evenodd" clip-rule="evenodd" d="M34.9989 10.7325L13.4927 17.63C13.4927 17.63 12.5805 17.8934 12.3521 18.1829C12.1236 18.4725 12.0734 19.2886 12.0734 19.2886L8.75 45.8787L33.7059 50.7229L35.6342 10.7061C35.3555 10.6534 35.0751 10.7061 34.9989 10.7325Z" fill="url(#paint3_linear_1_705)"/>
<path fill-rule="evenodd" clip-rule="evenodd" d="M26.1229 32.9532C25.7421 32.4267 25.2869 31.9528 24.8299 31.5315C24.373 31.1104 23.8918 30.7681 23.4089 30.4522C23.08 30.2415 22.7754 30.0309 22.5209 29.8202C22.2682 29.6097 22.0657 29.3991 21.9134 29.2148C21.7611 29.0041 21.6347 28.8198 21.5585 28.6093C21.4824 28.3987 21.4564 28.188 21.4564 27.9773C21.4564 27.6878 21.5326 27.3982 21.6347 27.1612C21.7351 26.9244 21.9134 26.7137 22.0899 26.5294C22.2942 26.3451 22.5209 26.2135 22.8013 26.1083C23.08 26.0029 23.4088 25.9503 23.7636 25.924C24.1444 25.8976 24.5253 25.924 24.8801 25.9503C25.2349 25.9765 25.5655 26.0556 25.8944 26.1345C26.199 26.2135 26.5036 26.3188 26.7563 26.4242C27.0108 26.5294 27.2635 26.6347 27.4418 26.7401L29.1156 21.58C28.8629 21.4484 28.5583 21.3167 28.2277 21.2378C27.8728 21.1324 27.492 21.0535 27.061 21.0008C26.63 20.9482 26.1731 20.9219 25.6919 20.9219C25.2107 20.9219 24.7036 20.9482 24.1705 21.0271C23.0298 21.1851 22.0138 21.501 21.1016 21.9748C20.2396 22.4225 19.478 23.0016 18.8445 23.7125C18.2352 24.397 17.754 25.1867 17.3992 26.0819C17.0686 26.9507 16.8661 27.9248 16.8159 28.9778C16.79 29.6097 16.8401 30.1888 16.9924 30.7154C17.1188 31.242 17.323 31.7422 17.6017 32.216C17.8544 32.6899 18.185 33.1112 18.5398 33.506C18.8947 33.901 19.3257 34.2696 19.7566 34.6118C20.1115 34.875 20.4161 35.1382 20.6706 35.3752C20.9233 35.6122 21.1276 35.8491 21.2781 36.1125C21.4305 36.3493 21.5325 36.5863 21.6087 36.8495C21.6849 37.0865 21.7108 37.3497 21.6849 37.6131C21.6849 37.8763 21.6088 38.1395 21.5066 38.3501C21.4063 38.5608 21.2781 38.7715 21.0756 38.9294C20.8991 39.0874 20.6706 39.1926 20.4162 39.2453C20.1635 39.2978 19.8588 39.3242 19.5282 39.2717C19.1492 39.219 18.7683 39.1137 18.4135 38.9556C18.0586 38.824 17.7022 38.6397 17.3733 38.4554C17.0444 38.2712 16.7398 38.0606 16.4854 37.8763C16.2067 37.692 15.9782 37.4813 15.8016 37.3234L14.6592 41.2461C14.8375 41.5093 15.0902 41.7464 15.3689 41.9832C15.6493 42.2202 15.9782 42.457 16.359 42.6941C16.7398 42.9047 17.1448 43.1152 17.5758 43.2995C18.0068 43.4838 18.4897 43.6418 18.9709 43.7735H18.9968H19.021H19.047H19.073C20.1115 44.0104 21.1016 44.0631 22.0397 43.9315C23.0038 43.7997 23.8917 43.4575 24.6516 42.9311C25.4374 42.3782 26.0726 41.6409 26.5538 40.6669C27.0367 39.6928 27.3154 38.5081 27.3656 37.1654C27.3916 36.3229 27.2895 35.5859 27.061 34.9014C26.8325 34.1116 26.5037 33.506 26.1229 32.9532Z" fill="url(#paint4_linear_1_705)"/>
<path opacity="0.226763" fill-rule="evenodd" clip-rule="evenodd" d="M14.8236 41.4601C14.7647 41.3904 14.7093 41.319 14.6591 41.2458L15.8015 37.3231C15.8171 37.3377 15.8344 37.3529 15.8517 37.3684C16.0213 37.5199 16.2325 37.7087 16.4852 37.876C16.7397 38.0603 17.0443 38.2709 17.3732 38.4552C17.7021 38.6394 18.0585 38.8237 18.4134 38.9555C18.7682 39.1134 19.1491 39.2186 19.5281 39.2714C19.8587 39.3239 20.1634 39.2977 20.4161 39.245C20.6705 39.1923 20.899 39.0871 21.0755 38.9291C21.278 38.7711 21.4062 38.5605 21.5065 38.3498C21.6087 38.1392 21.6848 37.876 21.6848 37.6128C21.7107 37.3494 21.6848 37.0862 21.6086 36.8492C21.5324 36.586 21.4304 36.349 21.278 36.1122C21.1344 35.8619 20.9439 35.6355 20.7068 35.4102C20.8314 35.551 20.9371 35.6955 21.0253 35.8488C21.1776 36.0858 21.278 36.3226 21.3542 36.586C21.4304 36.8228 21.4563 37.0862 21.4304 37.3494C21.4304 37.6128 21.3542 37.876 21.2538 38.0866C21.1517 38.2973 21.0253 38.5078 20.8228 38.6657C20.6445 38.8237 20.4161 38.9291 20.1634 38.9816C19.9089 39.0343 19.6043 39.0607 19.2754 39.008C18.8946 38.9555 18.5138 38.85 18.159 38.6921C17.8041 38.5605 17.4493 38.3762 17.1187 38.1919C16.7898 38.0076 16.4853 37.7971 16.2325 37.6128C15.9781 37.4455 15.7669 37.2567 15.5973 37.1052C15.58 37.0897 15.5643 37.0745 15.547 37.0599L14.4064 40.9825C14.5189 41.1501 14.6626 41.307 14.8236 41.4601ZM18.5605 33.5296C18.4653 33.4354 18.3736 33.3398 18.2853 33.2425C17.9305 32.8475 17.6016 32.4264 17.3472 31.9525C17.0685 31.4785 16.866 30.9783 16.7396 30.4519C16.5873 29.9253 16.5353 29.3461 16.5613 28.7143C16.6115 27.6611 16.8158 26.6871 17.1447 25.8182C17.4995 24.9232 17.9825 24.1335 18.59 23.449C19.2252 22.7381 19.985 22.1588 20.847 21.7113C21.7609 21.2375 22.7752 20.9216 23.9159 20.7636C24.449 20.6846 24.9562 20.6582 25.4374 20.6582C25.9203 20.6582 26.3772 20.6846 26.8082 20.7373C27.2392 20.79 27.62 20.8689 27.9749 20.9743C28.3037 21.0532 28.6084 21.1848 28.8628 21.3164L28.823 21.4395C28.6395 21.3598 28.4387 21.2879 28.2276 21.2375C27.8727 21.1322 27.4919 21.0532 27.0609 21.0005C26.6299 20.9479 26.1729 20.9216 25.6918 20.9216C25.2106 20.9216 24.7035 20.9479 24.1704 21.0268C23.0297 21.1848 22.0137 21.5007 21.1015 21.9747C20.2395 22.4222 19.4779 23.0013 18.8444 23.7122C18.2351 24.3967 17.7539 25.1864 17.3991 26.0816C17.0685 26.9504 16.866 27.9245 16.8158 28.9775C16.7898 29.6094 16.84 30.1885 16.9923 30.7151C17.1187 31.2417 17.3229 31.7419 17.6016 32.2157C17.8543 32.6896 18.1849 33.1109 18.5397 33.5057C18.5466 33.5136 18.5536 33.5217 18.5605 33.5296ZM22.005 29.3223C22.1434 29.4789 22.3166 29.6494 22.5208 29.8199C22.7753 30.0306 23.0799 30.2412 23.4088 30.4519C23.8917 30.7678 24.3729 31.1101 24.8298 31.5312C24.9631 31.6538 25.0946 31.7808 25.2262 31.9124C25.015 31.6854 24.7951 31.4706 24.5753 31.268C24.1201 30.8467 23.6373 30.5044 23.1561 30.1885C22.8255 29.9779 22.5208 29.7674 22.2681 29.5567C22.1729 29.4782 22.0863 29.3996 22.005 29.3223Z" fill="#1A1A1C"/>
<path fill-rule="evenodd" clip-rule="evenodd" d="M18.2353 16.13C17.8804 16.9198 17.5256 17.6043 17.2712 18.0782C17.0444 18.4731 17.1708 18.8943 17.5515 18.9995C17.9306 19.1313 18.4377 18.8943 18.6662 18.4993C18.6922 18.4468 19.4279 17.1568 20.0873 15.5244L18.2353 16.13Z" fill="url(#paint5_linear_1_705)"/>
<path fill-rule="evenodd" clip-rule="evenodd" d="M29.6728 12.4445C29.3699 13.6818 28.9892 14.8402 28.7105 15.551C28.5322 15.9723 28.7347 16.3671 29.1155 16.4198C29.5223 16.4726 29.9775 16.1828 30.1298 15.7617C30.1558 15.6826 30.8394 13.9715 31.2722 11.9443V11.918L29.6728 12.4445Z" fill="url(#paint6_linear_1_705)"/>
<path fill-rule="evenodd" clip-rule="evenodd" d="M42.4313 14.1553C42.4313 14.1553 42.4053 13.9446 42.279 13.8657C42.1768 13.7867 42.0505 13.7867 42.0505 13.7867L38.5247 13.5235L35.9387 10.8645C35.8366 10.7854 35.7345 10.7329 35.6081 10.7065L33.6817 50.7233L47.1981 47.6957L42.4313 14.1553Z" fill="url(#paint7_linear_1_705)"/>
<path opacity="0.41" fill-rule="evenodd" clip-rule="evenodd" d="M39.3865 43.2729L38.5246 13.5235L38.3722 13.3656L38.7791 42.8515C38.7791 42.8515 35.203 48.4854 34.6699 48.3275C33.8841 48.0906 36.2173 11.1541 36.2173 11.1541L35.9629 10.8909C35.8625 10.8118 35.7344 10.7593 35.634 10.7329L33.7318 50.1967L33.7058 50.7496L34.3652 49.8808L39.3865 43.2729Z" fill="url(#paint8_linear_1_705)"/>
<path opacity="0.32" fill-rule="evenodd" clip-rule="evenodd" d="M33.7058 50.7236L39.3865 43.2729L47.25 47.6959L33.7058 50.7236Z" fill="url(#paint9_linear_1_705)"/>
<path opacity="0.19" fill-rule="evenodd" clip-rule="evenodd" d="M33.7058 50.7236L39.3364 43.2729L47.25 47.6959L33.7058 50.7236Z" fill="url(#paint10_linear_1_705)"/>
<path opacity="0.19" fill-rule="evenodd" clip-rule="evenodd" d="M33.7058 50.7236L39.3364 43.2729L47.25 47.6959L33.7058 50.7236Z" fill="url(#paint11_linear_1_705)"/>
<path fill-rule="evenodd" clip-rule="evenodd" d="M42.303 13.8928C42.431 13.9983 42.4311 14.1562 42.4311 14.1562L47.1477 47.67L39.3864 43.2472L38.5245 13.498L42.0001 13.7612C42.0243 13.7876 42.1766 13.7876 42.303 13.8928Z" fill="url(#paint12_linear_1_705)"/>
<path fill-rule="evenodd" clip-rule="evenodd" d="M41.7459 13.9719C41.7459 13.9719 41.8982 13.9719 42.0246 14.1035C42.1509 14.2089 42.1768 14.3669 42.1768 14.3669L46.819 47.5123L47.1739 47.723L42.4555 14.1826C42.4555 14.1826 42.4313 14.0246 42.3291 13.9194C42.2028 13.814 42.0246 13.814 42.0246 13.814L38.5507 13.5508L41.7459 13.9719Z" fill="url(#paint13_linear_1_705)"/>
<path opacity="0.6" fill-rule="evenodd" clip-rule="evenodd" d="M28.1774 29.8729C31.1199 34.0062 33.0982 38.4817 34.0865 42.8257L35.634 10.6807C35.3553 10.6281 35.0749 10.6807 34.9987 10.707L13.4925 17.6311C13.4925 17.6311 13.29 17.6836 13.0355 17.789C18.4895 19.7372 23.9419 23.9231 28.1774 29.8729Z" fill="url(#paint14_linear_1_705)"/>
<path fill-rule="evenodd" clip-rule="evenodd" d="M8.75 45.8785L33.7059 50.7227L34.9244 23.29L11.8534 23.9459L8.75 45.8785Z" fill="url(#paint15_linear_1_705)"/>
<path opacity="0.3" fill-rule="evenodd" clip-rule="evenodd" d="M16.9422 18.0139C16.7154 18.6538 16.9387 19.3261 17.4441 19.5159C17.9478 19.7055 18.5398 19.3407 18.7682 18.701C18.995 18.0613 18.77 17.3888 18.2663 17.1991C17.7626 17.0093 17.1689 17.3742 16.9422 18.0139Z" fill="white"/>
<path opacity="0.89" fill-rule="evenodd" clip-rule="evenodd" d="M16.9146 17.7108C16.6879 18.3506 16.9128 19.023 17.4165 19.2127C17.9202 19.4025 18.5139 19.0377 18.7407 18.3979C18.9674 17.758 18.7442 17.0856 18.2388 16.8959C17.7351 16.7061 17.1431 17.0709 16.9146 17.7108Z" fill="#1A1A1C"/>
<path fill-rule="evenodd" clip-rule="evenodd" d="M38.5506 13.5235L35.9629 10.8645C35.8625 10.7854 35.7344 10.7329 35.634 10.7065L33.7058 50.7233L39.4125 43.2463L38.5506 13.5235Z" fill="url(#paint16_linear_1_705)"/>
<path fill-rule="evenodd" clip-rule="evenodd" d="M34.9989 10.7337L13.4927 17.6312C13.4927 17.6312 12.5805 17.8945 12.352 18.1841C12.3261 18.2104 12.326 18.2368 12.3018 18.2631L33.9846 12.05C34.1629 11.9973 34.5939 11.8393 34.5437 13.1293L33.2247 50.6713L33.6817 50.7504L35.6081 10.7337C35.3554 10.6546 35.0751 10.7073 34.9989 10.7337Z" fill="url(#paint17_linear_1_705)"/>
<path fill-rule="evenodd" clip-rule="evenodd" d="M34.9989 10.7337L13.4927 17.6312C13.4927 17.6312 12.5805 17.8945 12.352 18.1841C12.3261 18.2104 12.326 18.2368 12.3018 18.2631L17.3231 16.8151L34.5939 11.2602C34.67 11.2339 34.9487 11.1812 35.2274 11.2339L33.3252 50.6713L33.6817 50.7504L35.6081 10.7337C35.3554 10.6546 35.0751 10.7073 34.9989 10.7337Z" fill="url(#paint18_linear_1_705)"/>
<path opacity="0.32" fill-rule="evenodd" clip-rule="evenodd" d="M40.5291 43.9047L39.3866 43.2466L33.6817 50.7234L33.9846 50.6443C33.9846 50.6443 39.0076 43.9311 39.4628 43.7204C39.7934 43.5888 40.5291 43.9047 40.5291 43.9047Z" fill="url(#paint19_linear_1_705)"/>
<path opacity="0.57" fill-rule="evenodd" clip-rule="evenodd" d="M33.7058 50.7234L39.4125 43.2466C39.3866 43.2729 35.7863 47.3535 33.7058 50.7234Z" fill="url(#paint20_linear_1_705)"/>
<path opacity="0.46" fill-rule="evenodd" clip-rule="evenodd" d="M47.2499 47.6959L39.4124 43.2729C39.3864 43.2729 40.3004 43.4309 47.2499 47.6959Z" fill="url(#paint21_linear_1_705)"/>
<path opacity="0.3" fill-rule="evenodd" clip-rule="evenodd" d="M28.5375 15.3888C28.309 16.0287 28.534 16.7012 29.0377 16.891C29.5431 17.0808 30.1351 16.716 30.3618 16.0763C30.5903 15.4364 30.3653 14.7639 29.8616 14.5741C29.3579 14.3844 28.7642 14.7491 28.5375 15.3888Z" fill="white"/>
<path opacity="0.89" fill-rule="evenodd" clip-rule="evenodd" d="M28.5097 15.0866C28.283 15.7265 28.5081 16.399 29.0118 16.5888C29.5155 16.7785 30.1091 16.4138 30.3358 15.7739C30.5626 15.1342 30.3393 14.4617 29.8356 14.2719C29.3302 14.0821 28.7382 14.4469 28.5097 15.0866Z" fill="#1A1A1C"/>
<path fill-rule="evenodd" clip-rule="evenodd" d="M17.8302 18.9997C17.8042 18.9997 17.754 18.9997 17.728 18.9997C17.323 18.9471 17.0444 18.5522 17.0946 18.1047C17.1448 17.6833 18.59 7.83711 24.5252 5.59944C26.0207 5.04652 27.2894 5.15176 28.2535 5.96805C29.4201 6.94211 30.0536 8.89024 30.1558 11.7335C30.2319 13.7344 30.0035 15.4719 30.0035 15.5509C29.9533 15.9721 29.5725 16.2881 29.1658 16.2091C28.7607 16.1564 28.4561 15.7616 28.5322 15.3403C28.7607 13.5501 29.0134 8.62705 27.3154 7.20531C26.7823 6.75781 26.0467 6.7051 25.0584 7.07371C19.961 8.99548 18.616 18.2363 18.616 18.3152C18.5139 18.7101 18.211 18.9997 17.8302 18.9997Z" fill="#595961"/>
<path opacity="0.46" fill-rule="evenodd" clip-rule="evenodd" d="M27.9489 6.02031C27.0609 5.28326 25.8943 5.17802 24.4992 5.67823C22.0899 6.59958 20.0612 9.02157 18.6661 12.681C17.6275 15.3927 17.271 17.841 17.271 17.9464C17.2468 18.078 17.297 18.2096 17.3732 18.3151C17.4494 18.4203 17.5514 18.4994 17.6778 18.4994C17.702 18.4994 17.728 18.4994 17.7539 18.4994C17.9824 18.4994 18.1849 18.3151 18.2109 18.078C18.2351 17.9728 19.58 8.57407 24.8298 6.59959C25.8943 6.20462 26.7562 6.25733 27.3655 6.7839C29.1656 8.28452 28.9129 13.3655 28.6845 15.182C28.6585 15.4454 28.8368 15.7086 29.0895 15.7349C29.3439 15.7613 29.5966 15.577 29.6226 15.3138C29.6486 15.0241 30.5365 8.17928 27.9489 6.02031Z" fill="#1A1A1C" fill-opacity="0.1"/>
<path opacity="0.81" fill-rule="evenodd" clip-rule="evenodd" d="M17.7281 18.2098C17.7021 18.2098 17.7021 18.2098 17.6779 18.2098C17.5256 18.1834 17.4234 18.0255 17.4494 17.8675C17.4754 17.7621 17.8043 15.3665 18.8445 12.6547C20.2396 9.04804 22.218 6.65224 24.5755 5.75706C25.9204 5.25685 27.0108 5.36227 27.8469 6.04679C30.3324 8.12651 29.4704 14.8662 29.4202 15.1558C29.3943 15.3137 29.2679 15.419 29.0897 15.3928C28.9391 15.3665 28.837 15.2349 28.837 15.0506C28.837 14.9715 29.6989 8.36353 27.4678 6.46793C26.8083 5.96772 25.8945 5.91519 24.7798 6.33633C19.4279 8.36352 18.0328 17.8675 18.0328 17.9727C18.0068 18.1043 17.8804 18.2098 17.7281 18.2098Z" fill="#1A1A1C" fill-opacity="0.1"/>
<path opacity="0.42" fill-rule="evenodd" clip-rule="evenodd" d="M18.9707 16.0248C19.123 15.5509 19.2252 15.0771 19.3256 14.6294C19.2754 14.7873 19.0469 16.288 17.4995 16.6566C17.5255 16.6566 18.4376 16.6302 18.9707 16.0248Z" fill="#595961"/>
<path opacity="0.42" fill-rule="evenodd" clip-rule="evenodd" d="M19.5542 14.1029C19.7567 13.6553 19.909 13.2078 20.0614 12.7603C19.9852 12.9182 19.7065 14.3661 18.0328 14.5504C18.0328 14.5241 18.9449 14.6295 19.5542 14.1029Z" fill="#595961"/>
<path opacity="0.42" fill-rule="evenodd" clip-rule="evenodd" d="M20.2137 12.3652C20.4422 11.9438 20.6706 11.4963 20.8472 11.0752C20.771 11.2331 20.2639 12.6547 18.6663 12.6547C18.6663 12.6547 19.5543 12.839 20.2137 12.3652Z" fill="#595961"/>
<path opacity="0.42" fill-rule="evenodd" clip-rule="evenodd" d="M21.0757 10.6806C21.3543 10.2858 21.6087 9.89087 21.8614 9.46973C21.761 9.60132 21.0254 10.9704 19.504 10.7597C19.478 10.7597 20.366 11.0492 21.0757 10.6806Z" fill="#595961"/>
<path opacity="0.62" fill-rule="evenodd" clip-rule="evenodd" d="M29.6987 8.9696C29.5723 8.49557 29.4459 8.04807 29.2677 7.57422C29.3179 7.73217 29.8251 9.2328 28.7866 10.3121C28.7866 10.3121 29.5464 9.78571 29.6987 8.9696Z" fill="#595961"/>
<path opacity="0.62" fill-rule="evenodd" clip-rule="evenodd" d="M29.9533 11.3914C29.9273 10.9176 29.8512 10.4174 29.775 9.94336C29.775 10.1277 30.0295 11.681 28.8109 12.5235C28.8109 12.5235 29.6486 12.1549 29.9533 11.3914Z" fill="#595961"/>
<path opacity="0.62" fill-rule="evenodd" clip-rule="evenodd" d="M30.0797 13.8659C30.1057 13.392 30.1057 12.8918 30.0797 12.418C30.0797 12.6023 30.1056 14.1556 28.8109 14.8663C28.8109 14.8401 29.6989 14.5768 30.0797 13.8659Z" fill="#595961"/>
<path opacity="0.42" fill-rule="evenodd" clip-rule="evenodd" d="M22.0398 9.23185C22.3946 8.91595 22.7251 8.57369 23.0298 8.20508C22.9017 8.31032 21.8874 9.3898 20.4681 8.99484C20.4923 8.99484 21.2782 9.46886 22.0398 9.23185Z" fill="#595961"/>
<path opacity="0.42" fill-rule="evenodd" clip-rule="evenodd" d="M23.1802 8.02168C23.587 7.75848 23.9678 7.49512 24.3468 7.20557C24.1962 7.28463 23.0296 8.15328 21.6847 7.52147C21.6847 7.52147 22.3944 8.12692 23.1802 8.02168Z" fill="#595961"/>
<path opacity="0.62" fill-rule="evenodd" clip-rule="evenodd" d="M24.7277 7.15297C25.1846 7.0212 25.6157 6.86325 26.0467 6.7053C25.8943 6.75801 24.5252 7.23186 23.4088 6.23145C23.4088 6.23145 23.9419 7.0212 24.7277 7.15297Z" fill="#595961"/>
<path opacity="0.62" fill-rule="evenodd" clip-rule="evenodd" d="M28.7106 6.60005C28.3558 6.25779 27.9992 5.94189 27.6443 5.65234C27.7724 5.78394 28.9633 6.758 28.6345 8.23228C28.6085 8.23228 28.9893 7.36345 28.7106 6.60005Z" fill="#595961"/>
<path opacity="0.62" fill-rule="evenodd" clip-rule="evenodd" d="M27.3915 7.25795C27.62 7.5475 27.8468 7.83705 28.0753 8.10042C27.9991 7.995 27.2894 7.12636 27.6442 6.04688C27.6702 6.04688 27.2894 6.6525 27.3915 7.25795Z" fill="#595961"/>
<path opacity="0.62" fill-rule="evenodd" clip-rule="evenodd" d="M26.0206 6.6791C26.3772 6.73181 26.7321 6.75816 27.0869 6.78452C26.9606 6.75816 25.87 6.6791 25.3871 5.62598C25.413 5.62598 25.5395 6.33684 26.0206 6.6791Z" fill="#595961"/>
<path fill-rule="evenodd" clip-rule="evenodd" d="M29.1413 15.0243C29.1656 14.7347 30.0293 8.07406 27.62 6.04687C27.163 5.65208 26.6057 5.46777 25.9964 5.46777C25.5395 5.46777 25.0323 5.57302 24.4992 5.78368C22.166 6.6525 20.2135 8.99559 18.8444 12.5759C17.8041 15.2613 17.4752 17.6571 17.4492 17.7623C17.4492 17.8412 17.4995 17.9203 17.5757 17.9203H17.6016C17.6777 17.9203 17.7279 17.8676 17.7279 17.7887C17.7539 17.6833 19.123 8.07406 24.5753 6.02052C25.7419 5.57302 26.732 5.65208 27.4416 6.25753C29.7489 8.17931 28.887 14.8927 28.8628 14.9717C28.8628 15.0506 28.9129 15.1297 28.9891 15.1297C28.9891 15.1297 28.9891 15.1297 29.0133 15.1297C29.0895 15.1561 29.1413 15.1033 29.1413 15.0243Z" fill="url(#paint22_linear_1_705)"/>
<path fill-rule="evenodd" clip-rule="evenodd" d="M24.5513 7.07337C19.4538 8.99514 18.1089 18.2359 18.1089 18.3412C18.0588 18.6571 17.8545 18.8941 17.6017 18.973C17.6519 18.9993 17.6779 18.9993 17.7281 18.9993C17.7541 18.9993 17.8043 18.9993 17.8303 18.9993C18.211 18.9993 18.5139 18.7098 18.5659 18.3412C18.5901 18.2359 19.909 9.0215 25.0065 7.09955C25.363 6.96796 25.666 6.88907 25.9464 6.86271C25.5656 6.81 25.0826 6.88906 24.5513 7.07337Z" fill="url(#paint23_linear_1_705)"/>
<path fill-rule="evenodd" clip-rule="evenodd" d="M30.1557 11.7336C30.0536 8.89025 29.4201 6.96831 28.2535 5.96789C27.62 5.4415 26.8584 5.20448 25.9965 5.25719C26.6559 5.30973 27.2635 5.54674 27.7723 5.96789C28.939 6.94213 29.5724 8.89025 29.6728 11.7336C29.749 13.7344 29.5222 15.4719 29.5222 15.5509C29.4703 15.8668 29.2678 16.1038 29.0134 16.1827C29.0653 16.2091 29.0895 16.2091 29.1414 16.2091C29.5464 16.2618 29.9273 15.9721 29.9775 15.5509C30.0034 15.4719 30.2319 13.7607 30.1557 11.7336Z" fill="url(#paint24_linear_1_705)"/>
<defs>
<linearGradient id="paint0_linear_1_705" x1="23.819" y1="6.89585" x2="23.0236" y2="17.7252" gradientUnits="userSpaceOnUse">
<stop stop-color="white" stop-opacity="0.65"/>
<stop offset="1" stop-color="white" stop-opacity="0.01"/>
</linearGradient>
<linearGradient id="paint1_linear_1_705" x1="29.6315" y1="13.0953" x2="35.2315" y2="18.0002" gradientUnits="userSpaceOnUse">
<stop stop-opacity="0.01"/>
<stop offset="1" stop-opacity="0.4"/>
</linearGradient>
<linearGradient id="paint2_linear_1_705" x1="27.3863" y1="18.7689" x2="33.3138" y2="13.2479" gradientUnits="userSpaceOnUse">
<stop stop-opacity="0.01"/>
<stop offset="1" stop-opacity="0.4"/>
</linearGradient>
<linearGradient id="paint3_linear_1_705" x1="19.8415" y1="2.65664" x2="-3.18118" y2="29.1838" gradientUnits="userSpaceOnUse">
<stop stop-color="#B8D26E"/>
<stop offset="1" stop-color="#7FB525"/>
</linearGradient>
<linearGradient id="paint4_linear_1_705" x1="13.7522" y1="26.9873" x2="3.3929" y2="52.2142" gradientUnits="userSpaceOnUse">
<stop stop-color="white"/>
<stop offset="1" stop-color="#CECEEB"/>
</linearGradient>
<linearGradient id="paint5_linear_1_705" x1="19.099" y1="14.4959" x2="17.1856" y2="16.1403" gradientUnits="userSpaceOnUse">
<stop stop-opacity="0.01"/>
<stop offset="1" stop-opacity="0.4"/>
</linearGradient>
<linearGradient id="paint6_linear_1_705" x1="30.5106" y1="10.151" x2="27.7887" y2="11.616" gradientUnits="userSpaceOnUse">
<stop stop-opacity="0.01"/>
<stop offset="1" stop-opacity="0.4"/>
</linearGradient>
<linearGradient id="paint7_linear_1_705" x1="51.3349" y1="9.29824" x2="38.6995" y2="9.53287" gradientUnits="userSpaceOnUse">
<stop stop-color="#B4E034"/>
<stop offset="1" stop-color="#60A927"/>
</linearGradient>
<linearGradient id="paint8_linear_1_705" x1="28.6049" y1="89.1126" x2="45.0119" y2="89.0794" gradientUnits="userSpaceOnUse">
<stop stop-color="#1D1D1B" stop-opacity="0.5"/>
<stop offset="0.038033" stop-color="#1D1D1B" stop-opacity="0.4837"/>
<stop offset="0.4243" stop-color="#1D1D1B" stop-opacity="0.3185"/>
<stop offset="1" stop-color="#1D1D1B" stop-opacity="0.01"/>
</linearGradient>
<linearGradient id="paint9_linear_1_705" x1="37.763" y1="47.7156" x2="37.9567" y2="50.2691" gradientUnits="userSpaceOnUse">
<stop stop-opacity="0.01"/>
<stop offset="1" stop-opacity="0.4"/>
</linearGradient>
<linearGradient id="paint10_linear_1_705" x1="33.2402" y1="43.9773" x2="33.6893" y2="50.6164" gradientUnits="userSpaceOnUse">
<stop stop-color="white" stop-opacity="0.5"/>
<stop offset="0.0896271" stop-color="white" stop-opacity="0.4552"/>
<stop offset="1" stop-color="white" stop-opacity="0.01"/>
</linearGradient>
<linearGradient id="paint11_linear_1_705" x1="32.3765" y1="45.0099" x2="33.1754" y2="52.1019" gradientUnits="userSpaceOnUse">
<stop stop-opacity="0.01"/>
<stop offset="1" stop-opacity="0.4"/>
</linearGradient>
<linearGradient id="paint12_linear_1_705" x1="33.1951" y1="66.139" x2="51.2793" y2="66.1756" gradientUnits="userSpaceOnUse">
<stop stop-color="#1D1D1B" stop-opacity="0.5"/>
<stop offset="0.0896271" stop-color="#1D1D1B" stop-opacity="0.4552"/>
<stop offset="1" stop-color="#1D1D1B" stop-opacity="0.01"/>
</linearGradient>
<linearGradient id="paint13_linear_1_705" x1="46.1458" y1="12.5531" x2="43.5768" y2="13.1826" gradientUnits="userSpaceOnUse">
<stop stop-color="white" stop-opacity="0.4"/>
<stop offset="1" stop-color="white" stop-opacity="0.01"/>
</linearGradient>
<linearGradient id="paint14_linear_1_705" x1="29.2418" y1="4.2069" x2="8.75298" y2="16.0568" gradientUnits="userSpaceOnUse">
<stop stop-color="white" stop-opacity="0.5"/>
<stop offset="1" stop-color="white" stop-opacity="0.01"/>
</linearGradient>
<linearGradient id="paint15_linear_1_705" x1="23.0973" y1="51.0156" x2="24.4331" y2="44.5754" gradientUnits="userSpaceOnUse">
<stop stop-color="#1D1D1B" stop-opacity="0.5"/>
<stop offset="0.0896271" stop-color="#1D1D1B" stop-opacity="0.4552"/>
<stop offset="1" stop-color="#1D1D1B" stop-opacity="0.01"/>
</linearGradient>
<linearGradient id="paint16_linear_1_705" x1="30.8204" y1="88.2929" x2="47.2863" y2="88.3072" gradientUnits="userSpaceOnUse">
<stop stop-color="#1D1D1B" stop-opacity="0.5"/>
<stop offset="1" stop-color="#1D1D1B" stop-opacity="0.01"/>
</linearGradient>
<linearGradient id="paint17_linear_1_705" x1="15.7739" y1="8.41364" x2="7.78801" y2="39.0953" gradientUnits="userSpaceOnUse">
<stop stop-color="white" stop-opacity="0.5"/>
<stop offset="1" stop-color="white" stop-opacity="0.01"/>
</linearGradient>
<linearGradient id="paint18_linear_1_705" x1="15.7739" y1="8.41364" x2="7.78801" y2="39.0953" gradientUnits="userSpaceOnUse">
<stop stop-color="white" stop-opacity="0.5"/>
<stop offset="1" stop-color="white" stop-opacity="0.01"/>
</linearGradient>
<linearGradient id="paint19_linear_1_705" x1="35.1547" y1="40.5757" x2="28.8426" y2="49.2635" gradientUnits="userSpaceOnUse">
<stop stop-color="white" stop-opacity="0.5"/>
<stop offset="0.0896271" stop-color="white" stop-opacity="0.4552"/>
<stop offset="1" stop-color="white" stop-opacity="0.01"/>
</linearGradient>
<linearGradient id="paint20_linear_1_705" x1="37.0585" y1="42.5731" x2="36.4336" y2="43.974" gradientUnits="userSpaceOnUse">
<stop stop-opacity="0.01"/>
<stop offset="1" stop-opacity="0.4"/>
</linearGradient>
<linearGradient id="paint21_linear_1_705" x1="43.2567" y1="44.4256" x2="43.2258" y2="44.8022" gradientUnits="userSpaceOnUse">
<stop stop-opacity="0.01"/>
<stop offset="1" stop-opacity="0.4"/>
</linearGradient>
<linearGradient id="paint22_linear_1_705" x1="20.5267" y1="4.58156" x2="17.798" y2="15.3615" gradientUnits="userSpaceOnUse">
<stop stop-color="white" stop-opacity="0.65"/>
<stop offset="1" stop-color="white" stop-opacity="0.01"/>
</linearGradient>
<linearGradient id="paint23_linear_1_705" x1="23.5993" y1="17.9066" x2="30.1578" y2="11.1711" gradientUnits="userSpaceOnUse">
<stop stop-opacity="0.01"/>
<stop offset="1" stop-opacity="0.4"/>
</linearGradient>
<linearGradient id="paint24_linear_1_705" x1="26.6334" y1="10.8001" x2="31.3803" y2="15.6261" gradientUnits="userSpaceOnUse">
<stop stop-opacity="0.01"/>
<stop offset="1" stop-opacity="0.4"/>
</linearGradient>
</defs>
</svg>
