<svg width="56" height="56" viewBox="0 0 56 56" fill="none" xmlns="http://www.w3.org/2000/svg">
<path d="M9.62463 29.7503C7.20859 29.7503 5.25 31.7088 5.25 34.1249C5.25 36.5409 7.20877 38.4995 9.62481 38.4995C12.0411 38.4995 14 36.5408 14 34.1245V29.7503H9.62463ZM21.875 29.7503C19.4588 29.7503 17.5 31.709 17.5 34.1253V46.3745C17.5 48.7908 19.4588 50.7495 21.875 50.7495C24.2912 50.7495 26.25 48.7908 26.25 46.3745V34.1253C26.25 31.709 24.2912 29.7503 21.875 29.7503Z" fill="#E01E5A"/>
<path d="M29.7504 46.3754C29.7504 48.7914 31.709 50.75 34.125 50.75C36.541 50.75 38.4996 48.7912 38.4996 46.3752C38.4996 43.9589 36.5409 42 34.1246 42L29.7504 42L29.7504 46.3754ZM29.7504 34.125C29.7504 36.5412 31.7091 38.5 34.1254 38.5L46.3746 38.5C48.7909 38.5 50.7496 36.5412 50.7496 34.125C50.7496 31.7088 48.7909 29.75 46.3746 29.75L34.1254 29.75C31.7091 29.75 29.7504 31.7088 29.7504 34.125Z" fill="#ECB22E"/>
<path d="M46.3754 26.2502C48.7914 26.2502 50.75 24.2916 50.75 21.8756C50.75 19.4596 48.7912 17.501 46.3752 17.501C43.9589 17.501 42 19.4597 42 21.876V26.2502H46.3754ZM34.125 26.2502C36.5412 26.2502 38.5 24.2915 38.5 21.8752V9.62597C38.5 7.20973 36.5412 5.25098 34.125 5.25098C31.7088 5.25098 29.75 7.20973 29.75 9.62598V21.8752C29.75 24.2915 31.7088 26.2502 34.125 26.2502Z" fill="#2EB67D"/>
<path d="M26.2497 9.62463C26.2497 7.20859 24.2912 5.25 21.8751 5.25C19.4591 5.25 17.5005 7.20878 17.5005 9.62481C17.5005 12.0411 19.4592 14 21.8755 14L26.2497 14L26.2497 9.62463ZM26.2497 21.875C26.2497 19.4588 24.291 17.5 21.8747 17.5L9.62548 17.5C7.20924 17.5 5.25049 19.4588 5.25049 21.875C5.25049 24.2912 7.20924 26.25 9.62549 26.25L21.8747 26.25C24.291 26.25 26.2497 24.2912 26.2497 21.875Z" fill="#36C5F0"/>
</svg>
